# xmcd CD database file
#
# Track frame offsets:
#	183
#	17075
#	29235
#	40855
#	53625
#	63875
#	74143
#	85045
#	94453
#	105948
#	116463
#	129223
#	139895
#	149313
#	159998
#	171028
#	182283
#	194970
#	206803
#	217460
#	228853
#	239920
#	250235
#	261523
#	273100
#	284240
#
# Disc length: 3962 seconds
#
# Revision: 0
# Processed by: cddbd v1.4PL0 Copyright (c) Steve Scherf et al.
# Submitted via: CDex 1.40Release
#
DISCID=970f781a
DTITLE=Patsy Cline - The Wonderful World of Patsy Cline
DYEAR=1993
DGENRE=Blues
TTITLE0=Faded Love
TTITLE1=He Called Me Baby
TTITLE2=When I Get Thru With You (You'll Love Me Too)
TTITLE3=When You Need A Laugh
TTITLE4=Who Can I Count On
TTITLE5=That's How A Heartache Begins
TTITLE6=Love Letters In The Sand
TTITLE7=Blue Moon Of Kentucky
TTITLE8=Your Kinda Love
TTITLE9=Lovesick Blues
TTITLE10=Yes, I Understand
TTITLE11=Got A Lot Of Rhythm In My Soul
TTITLE12=Come On In
TTITLE13=I Can See An Angel
TTITLE14=Dont't Ever Leave Me
TTITLE15=Cry Not For Me
TTITLE16=Just A Closer Walk With Thee
TTITLE17=Today, Tomorrow And Forever
TTITLE18=I Dont't Wanta
TTITLE19=That Wonderful Someone
TTITLE20=Stop The World (And Let Me Off)
TTITLE21=Walking Dream
TTITLE22=Dear God
TTITLE23=I've Loved And Lost Again
TTITLE24=Hidin' Out
TTITLE25=Life's Railway to Heaven
EXTD=YEAR: 1993 ID3G: 0
EXTT0=
EXTT1=
EXTT2=
EXTT3=
EXTT4=
EXTT5=
EXTT6=
EXTT7=
EXTT8=
EXTT9=
EXTT10=
EXTT11=
EXTT12=
EXTT13=
EXTT14=
EXTT15=
EXTT16=
EXTT17=
EXTT18=
EXTT19=
EXTT20=
EXTT21=
EXTT22=
EXTT23=
EXTT24=
EXTT25=
PLAYORDER=
